<svg width="14" height="14" viewBox="0 0 14 14" fill="none" xmlns="http://www.w3.org/2000/svg">
<g clip-path="url(#clip0_1_5514)">
<path d="M13.8574 2.74814C13.3528 2.97214 12.8105 3.123 12.2414 3.191C12.8225 2.843 13.2688 2.29157 13.4785 1.63443C12.9351 1.95671 12.3328 2.191 11.6916 2.31728C11.1791 1.77043 10.4471 1.42871 9.63792 1.42871C7.82135 1.42871 6.4865 3.12357 6.89678 4.883C4.55907 4.76585 2.48592 3.64585 1.09792 1.94357C0.360781 3.20814 0.715638 4.86243 1.96821 5.70014C1.50764 5.68528 1.07335 5.559 0.694495 5.34814C0.663638 6.65157 1.59792 7.871 2.95107 8.14243C2.55507 8.24985 2.12135 8.275 1.68021 8.19043C2.03792 9.30814 3.07678 10.1213 4.30878 10.1441C3.12592 11.0716 1.63564 11.4859 0.143066 11.3099C1.38821 12.1081 2.86764 12.5739 4.45621 12.5739C9.68021 12.5739 12.6316 8.16185 12.4534 4.20471C13.0031 3.80757 13.4802 3.31214 13.8574 2.74814Z" fill="white"/>
</g>
<defs>
<clipPath id="clip0_1_5514">
<rect width="13.7143" height="13.7143" fill="white" transform="translate(0.143066 0.143555)"/>
</clipPath>
</defs>
</svg>
