<svg width="16" height="12" viewBox="0 0 16 12" fill="none" xmlns="http://www.w3.org/2000/svg">
<path fill-rule="evenodd" clip-rule="evenodd" d="M15.5267 3.07457C15.5267 3.07457 15.3757 2.01031 14.9126 1.5415C14.3255 0.926482 13.6671 0.923565 13.3653 0.887529C11.2041 0.731201 7.96226 0.731201 7.96226 0.731201H7.95539C7.95539 0.731201 4.71369 0.731201 2.55239 0.887529C2.25054 0.923565 1.59246 0.926482 1.00507 1.5415C0.541922 2.01031 0.391257 3.07457 0.391257 3.07457C0.391257 3.07457 0.236816 4.32434 0.236816 5.5741V6.74596C0.236816 7.99555 0.391257 9.24532 0.391257 9.24532C0.391257 9.24532 0.541922 10.3096 1.00507 10.7784C1.59246 11.3936 2.36414 11.3738 2.70786 11.4384C3.94355 11.5569 7.95882 11.5937 7.95882 11.5937C7.95882 11.5937 11.2041 11.5887 13.3653 11.4325C13.6671 11.3965 14.3255 11.3936 14.9126 10.7784C15.3757 10.3096 15.5267 9.24532 15.5267 9.24532C15.5267 9.24532 15.6808 7.99555 15.6808 6.74596V5.5741C15.6808 4.32434 15.5267 3.07457 15.5267 3.07457ZM6.36449 8.16561L6.3638 3.82635L10.5368 6.00344L6.36449 8.16561Z" fill="white"/>
</svg>
